<svg width="72" height="72" xmlns="http://www.w3.org/2000/svg">
 <!-- Created with Method Draw - http://github.com/duopixel/Method-Draw/ -->
 <g>
  <title>background</title>
  <rect fill="none" id="canvas_background" height="74" width="74" y="-1" x="-1"/>
 </g>
 <g>
  <title>Layer 1</title>
  <path stroke="#000" id="svg_5" d="m55.932072,33.74662c0,0 6.569693,1.72982 8.130027,7.709982c0,0 1.396043,2.322894 0.985452,3.558468c-0.410592,1.235547 -1.067597,1.630939 -1.23182,1.77922c0,0 0.821228,-1.136747 -1.970903,-2.965394c0,0 -1.437138,-0.296537 -1.724557,-0.593073c-0.287419,-0.296537 -4.516667,-1.285001 -5.420018,1.186147c-0.903329,2.471175 -1.108625,6.62269 -0.985452,6.820372c0.123173,0.197682 4.311371,3.953859 4.680912,5.041151c0.369542,1.087292 2.340467,3.311304 3.202746,3.261904c0.862256,-0.0494 2.915305,-0.0494 3.449092,-0.88961c0.533765,-0.84021 2.094099,-0.939037 2.46364,0c0.369542,0.939011 0.246369,0.88961 0.246369,0.88961c0,0 1.313943,-0.345937 1.724557,0.88961c0.410592,1.235574 -0.615932,1.77922 -0.739106,1.77922c-0.123173,0 0.780156,-1.878075 -0.492737,-1.482684c0,0 -0.739083,0.037077 -0.739083,-0.296537c0,-0.333614 0.431139,1.74217 0,1.77922c0,0 -1.447401,-1.927475 -1.724557,-0.88961c0,0 -0.923854,0.222409 -1.23182,0.296537c-0.307944,0.074127 -0.246369,0.296537 -0.246369,0.296537c0,0 -0.800681,0.370664 -0.246346,1.482684c0,0 0,0.407741 -0.246369,0.5931c-0.246369,0.185332 0.153983,1.074942 1.23182,0.296537c0,0 0.277156,-0.296537 0.246369,0c-0.03081,0.296537 -1.108647,1.890425 -2.46364,-0.296537c0,0 -0.492737,-1.668043 0.246369,-2.075784c0.739083,-0.407741 -0.246369,-1.223224 -1.23182,-0.593073c0,0 -0.061598,1.186147 0.246346,1.482684c0.307966,0.296537 -0.523525,0.037077 -0.739083,-0.296537c-0.215558,-0.333587 -0.492737,0.704278 -0.492737,0.88961c0,0.185332 -0.277156,0.815483 -0.492715,0.5931c-0.215581,-0.222409 -2.248082,-0.481896 -2.217294,-0.296564c0.03081,0.185359 -0.954642,0.963765 -1.23182,0.5931c-0.277156,-0.370691 -1.81692,-2.261116 -1.970903,-2.075784c-0.153983,0.185332 1.047049,2.261116 1.724557,2.668858c0.677485,0.407714 3.51069,0.667201 4.434544,-0.296537c0,0 1.416591,-0.333614 1.478189,0c0,0 1.601362,0.778406 1.478189,1.186147c-0.123195,0.407741 -0.123195,0.185332 -0.246369,0c-0.123173,-0.185359 -1.139435,-0.85256 -1.23182,-0.593073c-0.092385,0.25946 0,0.296537 0,0.296537c0,0 1.293418,0.444792 1.23182,0.593073c0,0 1.508976,0.741328 1.23182,2.372294c0,0 -0.461927,0.407741 -0.492737,0c-0.030788,-0.407741 0.184771,-1.519761 -0.739083,-1.482684c0,0 -0.153983,0.593073 -0.739083,0.296537c-0.585122,-0.296537 0.338732,-0.926687 -2.710009,-0.593073c0,0 0.123173,0.704278 0.492715,0.88961c0.369542,0.185332 0.985474,0.185332 0.985474,0.88961c0,0 0.400329,0.593073 0,1.186147c0,0 -0.246369,0.185332 -0.246369,0c0,-0.185332 0.246369,-1.074942 -0.985452,-1.482684c-1.231843,-0.407741 -0.985474,-0.296537 -0.985474,-0.296537c0,0 0.215581,1.77922 -0.246369,1.77922c-0.461927,0 0.307966,1.112019 1.231843,0.593073c0,0 0.092363,-0.444792 0.246346,-0.296537c0.153983,0.148282 -0.769871,2.298166 -2.46364,-0.296537c0,0 -0.554312,-1.371479 0,-1.77922c0,0 0.369542,-1.371479 -1.478189,-0.88961c0,0 -0.769871,0.148255 -0.739083,0c0.030788,-0.148282 -0.123173,0.704278 0,0.88961c0.123173,0.185332 -1.447401,-0.407741 -1.478189,-0.593073l-0.492715,0c0,0 0.287419,1.72982 0.492715,1.77922c0.205296,0.0494 -0.944379,-0.84021 -1.23182,-1.482684c0,0 0,1.235547 0.246369,1.482684c0.246369,0.247136 -1.108647,-1.334429 -0.985452,-1.482684c0,0 0.04105,1.581538 0.492715,2.372294c0.451664,0.790756 -0.985452,-0.741328 -1.23182,-1.186147c0,0 -0.246346,0.197682 0,0.593073c0.246369,0.395391 -0.821206,-0.395391 -0.985452,-1.482684c0,0 -0.698033,-0.691928 -0.985452,-0.88961c0,0 0.04105,1.680366 0.246369,1.77922c0,0 -0.57486,-0.543673 -0.739106,-1.186147c0,0 -0.328469,0.593073 -0.246369,0.88961c0,0 -0.944379,-1.285001 -1.23182,-2.372294c-0.287419,-1.087292 -0.246346,0.296537 -0.246346,0.296537c0,0 -0.57486,-0.098882 -0.985474,-2.075757c0,0 -2.381518,3.014768 -3.202723,3.261904c-0.821206,0.247109 0.985452,-1.186147 0.985452,-1.186147c0,0 -1.354993,0.494219 -1.478189,0.88961c0,0 0.123195,-0.543673 0.739106,-1.186147c0.61591,-0.642501 -0.739106,-0.296537 -0.739106,-0.296537c0,0 -0.287419,-0.098882 -0.246346,-3.261931c0,0 -1.847753,2.372321 -2.956377,2.372321c-1.108647,0 1.026524,-0.988492 1.23182,-1.779247c0.205296,-0.790756 -0.451664,-0.543646 -0.739106,-0.296537c-0.287419,0.247136 -2.422568,1.72982 -2.46364,2.075784c-0.04105,0.345937 -0.246346,-0.593073 -0.246346,-0.593073c0,0 -0.492737,0.296537 -0.985474,0.296537c-0.492715,0 1.437116,-1.087292 1.724557,-1.779247c0.287441,-0.691928 -2.668936,1.235574 -3.695461,2.075784c0,0 -0.862279,0.345937 -0.985452,0c-0.123195,-0.345964 1.478189,-1.680366 1.478189,-1.779247c0,-0.098855 0.574837,-0.939011 -0.492737,-0.296537c-1.067574,0.642501 -2.46364,0.148282 -3.449092,0.593073c-0.985474,0.444819 -2.053026,1.828648 -3.449114,1.779247c-1.396066,-0.049427 -1.39573,2.075757 -3.941807,2.075757c-1.478189,0 -0.862279,0.691928 -1.478189,0.593073c-0.61591,-0.098855 0.739083,-0.88961 0.739083,-0.88961c0,0 -1.478189,0.593073 -1.724535,0.593073c-0.246369,0 -1.355016,0.0494 1.231798,-1.186147c0,0 -1.88878,0 -1.231798,-0.296537c0.65696,-0.296537 2.299395,-0.88961 2.217272,-1.186147c-0.082145,-0.296537 -1.765607,-0.247136 -1.23182,-0.593073c0.533765,-0.345964 3.449092,-1.630966 2.710009,-1.779247c-0.739106,-0.148255 -1.80668,-0.197682 -1.23182,-0.593073c0.57486,-0.395391 7.637267,-1.334402 8.622741,-2.372294c0.985452,-1.037892 3.531215,-4.05266 4.188175,-4.151514c0.656983,-0.098882 0,-0.84021 -0.492715,-0.5931c-0.492737,0.247136 -0.944401,-0.148255 -0.739106,-1.77922c0.205318,-1.630939 -2.1131,3.576481 -3.449092,1.77922c-0.698033,-0.939011 -0.164246,-1.630939 -0.985452,-1.482684c-0.821206,0.148282 -0.780156,-1.087292 -0.985452,-0.593073c-0.205296,0.494219 -1.929853,3.558468 -2.710009,3.261931c-0.780156,-0.296537 -0.205296,-0.494219 -0.739106,-0.593073c-0.533787,-0.098882 -0.903329,-0.296537 -0.985452,-0.889637c-0.082123,-0.593073 -0.574837,0.395418 -0.739083,-0.593073c-0.164246,-0.988465 -0.287419,-2.224012 -0.985452,-1.186147c-0.698055,1.037892 -0.944424,0.345964 -0.985474,0c-0.04105,-0.345937 -1.519239,0.197682 -1.478166,-0.88961c0.041028,-1.087292 -1.437138,0.345964 -1.231843,-0.88961c0.205318,-1.235547 -1.248738,-0.167454 -0.985452,-1.186147c0.57486,-2.224039 -1.970903,-0.197682 -1.724535,-1.186147c0.246346,-0.988465 -1.19077,-0.197682 -0.985474,-1.186147c0.205318,-0.988465 -1.367116,-0.645143 -1.23182,-1.482684c0.287419,-1.779247 -1.478166,-0.543673 -1.23182,-2.075784c0.246369,-1.532084 -1.12115,-0.010274 -0.985452,-1.186147c0.205318,-1.77922 -1.759782,-1.133106 -1.23182,-2.372294c0.821228,-1.927502 -0.84442,-1.098914 -0.492737,-2.075757c0.533787,-1.482684 -3.429598,0.164488 -2.46364,-2.372321c0.451687,-1.186147 -2.682515,-1.975878 -1.23182,-2.965367c2.46364,-1.680366 -3.777561,-0.84021 -0.739083,-3.558441c2.833182,-1.581538 3.006794,-1.730494 -0.492737,-1.482684c-1.396066,0.098855 -3.490165,-2.224039 -1.478166,-2.372321c2.011976,-0.148255 6.118028,-1.334402 1.478166,-1.77922c-4.63984,-0.444792 -4.804085,-2.471148 -2.956355,-2.372294c1.84773,0.098855 9.074406,0.098855 7.144553,-0.593073c-1.929853,-0.691928 -10.761789,-2.382918 -7.390921,-4.151514c1.601362,-0.84021 12.885219,3.627148 9.608193,0.593073c-0.533765,-0.494219 -5.748487,-2.273466 -7.63729,-4.744615c-1.88878,-2.471148 -1.519239,-2.817112 -0.492715,-2.372294c1.026524,0.444792 12.934045,6.968627 11.086382,4.744588c-0.328491,-0.395391 -7.144553,-4.299796 -8.130027,-7.709955c-0.985452,-3.410186 -0.04105,-2.520576 0.739106,-1.482711c0.780133,1.037892 11.984624,10.949046 10.10093,7.709982c-0.57486,-0.988465 -5.584241,-4.94227 -6.651838,-8.896129c-1.067597,-3.953832 -0.246369,-2.866513 0.492737,-1.77922c0.739083,1.087292 12.156197,15.900916 10.347276,10.675349c-0.410592,-1.186147 -4.023952,-4.89287 -4.434544,-8.303055c-0.410592,-3.410186 0.65696,-2.125157 1.23182,-0.88961c0.57486,1.235574 8.663814,16.606111 8.86911,13.93728c0,0 0.041073,0.0494 0.246369,0c0.205296,-0.049427 -0.164246,-1.433283 0.246369,-1.186147c0,0 0.164246,-1.087292 0.492715,-0.889637c0.328491,0.197682 0.656983,0.049427 0.739106,-1.186147c0.0821,-1.235547 2.504691,0.197682 3.202723,6.523835c0,0 0.492737,0.641692 0.492737,2.075757c0,0.741355 2.956355,4.349223 4.680912,4.151541c1.724557,-0.197682 4.188198,4.151514 4.927281,4.448051c0.739083,0.296537 2.381518,2.075757 4.927281,0.296537c2.545763,-1.77922 5.050476,-2.372294 2.956377,-2.668831c-2.094099,-0.296537 -1.683485,-1.285001 -0.739083,-1.482684c0.944379,-0.197682 5.050454,-0.296537 3.695461,-1.186147c-1.355016,-0.889637 -2.525507,-5.642611 -0.739106,-4.448078c0.739106,0.494219 3.363899,4.885913 2.956377,1.77922c-0.123195,-0.939011 -1.724557,-2.075757 -1.23182,-5.337661c0.492715,-3.261931 1.175869,-0.66685 1.23182,-0.296537c0.082123,0.543646 2.074089,7.293396 2.46364,3.854978c0.123173,-1.087292 -0.903329,-2.520576 -0.492737,-6.523835c0.410592,-4.003232 0.985452,0 0.985452,0c0,0 1.171544,4.099606 0.985474,6.227298c-0.082145,0.939037 1.067574,0.593073 0.985452,-1.186147c-0.082145,-1.77922 -0.698033,-5.683625 -0.246369,-5.634225c0.451687,0.049427 1.804977,2.646854 1.478189,4.744615c-0.123195,0.790756 1.765607,1.581538 -0.246369,3.261904c-2.011954,1.680366 -4.188198,5.041151 -4.188198,5.041151c0,0 0.486777,2.171996 -1.970903,3.261904c-1.560312,0.691928 -0.246369,2.075757 -0.246369,2.075757z" stroke-opacity="null" stroke-width="0" fill="#ff0000"/>
 </g>
</svg>